<svg width="589" height="67" viewBox="0 0 589 67" fill="none" xmlns="http://www.w3.org/2000/svg">
<path fill-rule="evenodd" clip-rule="evenodd" d="M27.0233 0.265505C17.6487 1.53418 8.37622 8.37456 3.72386 17.4537C2.01094 20.7955 0.731619 24.4245 0.330237 27.0786L0.0259562 29.0923H4.27335H8.52075L9.26132 26.1675C11.7452 16.3625 19.6337 8.71714 28.1446 7.86647C35.5941 7.12186 40.7374 8.94966 46.1016 14.2471C49.5754 17.6777 51.8713 21.687 53.0791 26.4298L53.7002 28.8704L57.7896 28.9982C61.8088 29.1233 61.8786 29.1078 61.8786 28.093C61.8786 26.1547 60.5156 21.7753 58.8054 18.2205C52.7672 5.66681 40.0791 -1.50106 27.0233 0.265505ZM311.344 0.112411C300.231 0.950208 290.689 7.56472 285.309 18.1601C280.774 27.0905 280.632 38.6919 284.94 48.3483C288.809 57.0178 297.55 64.3663 306.143 66.1728C310.222 67.0297 316.915 66.9831 320.264 66.0743C321.757 65.6687 323.053 65.2782 323.145 65.2059C323.237 65.134 322.138 63.749 320.704 62.1289L318.096 59.1833L315.381 59.4717C304.921 60.5824 295.64 54.0869 291.527 42.7753C290.472 39.8749 290.345 38.892 290.356 33.7516C290.367 28.7067 290.52 27.533 291.567 24.3983C293.826 17.6347 298.59 12.1265 304.654 9.26605C316.82 3.52794 331.125 11.4986 335.06 26.2079C335.995 29.7007 336.022 36.4913 335.116 40.2938C334.454 43.0708 332.149 48.2028 330.712 50.0971C330.138 50.8533 329.921 50.7037 327.655 47.9942L325.216 45.0779L321.3 45.0725C319.147 45.0694 317.385 45.1711 317.385 45.298C317.385 45.4249 321.441 50.2174 326.399 55.9479L335.413 66.3671H339.43C343.141 66.3671 343.5 66.5 342.833 65.6199C342.513 65.1963 340.674 63.0768 338.785 60.8815L335.35 56.89L336.863 55.1381C338.839 52.8492 341.654 47.4187 342.889 43.5141C345.058 36.6578 344.489 27.079 341.487 19.92C337.214 9.7311 326.921 1.37621 317.497 0.446553C316.082 0.306772 314.521 0.144359 314.029 0.0848966C313.537 0.0258781 312.328 0.0383048 311.344 0.112411ZM496.975 1.06736C492.444 2.2109 489.104 4.0245 486.496 6.75843C483.115 10.304 481.877 13.2997 481.678 18.4135C481.492 23.1909 481.983 25.3005 483.938 28.1178C486.548 31.8799 490.428 33.6664 503.98 37.3473C515.862 40.5743 519.926 43.0087 520.887 47.4746C521.326 49.5167 520.962 52.7698 520.119 54.3314C519.292 55.8641 516.599 57.8348 514.201 58.6632C510.442 59.9621 500.423 59.8445 495.942 58.4489C491.771 57.1501 487.887 55.2424 484.886 53.0183L482.572 51.3032L480.766 54.5089L478.961 57.7141L480.62 59.1562C483.161 61.3666 489.836 64.4608 494.807 65.733C500.532 67.1983 510.066 67.4335 514.72 66.2243C521.358 64.4985 526.101 60.9175 528.509 55.8139C529.557 53.5894 529.705 52.729 529.699 48.8391C529.694 45.239 529.51 44.0053 528.723 42.3013C525.766 35.8949 521.631 33.6167 505.567 29.5414C500.728 28.3135 496.006 26.9232 495.074 26.452C491.365 24.5754 489.289 20.6748 489.889 16.7095C490.601 11.9969 493.397 9.22035 498.613 8.04397C506.411 6.28539 515.363 8.06394 521.307 12.5525L523.202 13.9844L524.975 10.8023C525.949 9.05172 526.644 7.45556 526.52 7.25543C525.945 6.33288 519.058 2.77268 515.838 1.73342C510.98 0.165217 501.831 -0.157832 496.975 1.06736ZM74.4078 13.783V26.8735H78.6588H82.9098V17.2983V7.72314L93.7609 7.86869C103.884 8.00492 104.732 8.07903 106.402 8.9754C108.872 10.3009 111.309 12.919 112.531 15.558C114.065 18.8759 114.007 24.8225 112.406 28.2075C111.03 31.1153 108.881 33.362 106.412 34.4745C104.784 35.2076 103.168 35.2861 89.51 35.295L74.4078 35.3048V50.836V66.3671H78.6588H82.9098V54.6078V42.8485H93.7788C105.82 42.8485 108.118 42.5126 112.293 40.1438C118.039 36.8836 122.287 28.9032 122.287 21.3675C122.287 12.9789 116.052 4.26146 108.114 1.55326C105.805 0.765609 104.265 0.69239 89.999 0.69239H74.4078V13.783ZM133.027 10.6767V20.6611H137.042H141.056L141.181 14.3377L141.305 8.01424L159.316 7.89842L177.326 7.78216V4.23749V0.69239H155.176H133.027V10.6767ZM189.855 3.18226V5.67213L214.354 36.0179L238.854 66.364L242.545 66.3654L246.237 66.3671V33.5298V0.69239H241.989H237.742L237.627 26.2558L237.511 51.8193L216.995 26.2558L196.478 0.69239H193.167H189.855V3.18226ZM355.42 20.3904C355.42 36.5126 355.549 40.7615 356.129 43.7981C358.436 55.8636 365.305 63.7206 375.663 66.1426C377.204 66.5029 378.615 66.8007 378.8 66.8042C378.985 66.8078 379.136 65.1451 379.136 63.1091V59.4078L377.234 58.854C372.942 57.6045 368.507 53.6981 366.43 49.3379C363.836 43.8913 363.788 43.4169 363.592 21.2158L363.411 0.69239H359.415H355.42V20.3904ZM403.625 20.3283C403.401 42.182 403.242 43.6104 400.395 49.3472C398.346 53.478 394.56 57.0449 390.771 58.4152L388.085 59.3861V63.0985C388.085 65.1402 388.236 66.8078 388.421 66.8042C390.126 66.771 395.12 65.13 397.472 63.8298C403.758 60.3557 408.075 54.3988 410.349 46.0608L411.528 41.7391L411.696 21.2158L411.865 0.69239H407.845H403.826L403.625 20.3283ZM427.015 10.6767V20.6611H431.266H435.517V14.2267V7.79236H453.416H471.315V4.24238V0.69239H449.165H427.015V10.6767ZM534.856 4.24238V7.79236H561.928H589V4.24238V0.69239H561.928H534.856V4.24238ZM558.124 41.2954V66.3671H562.152H566.179V41.2954V16.2236H562.152H558.124V41.2954ZM189.855 42.5729V66.3671H194.106H198.357V48.0053V29.6434L194.106 24.2111L189.855 18.7787V42.5729ZM133.027 40.186V50.836H137.043H141.059L141.182 43.625L141.305 36.4141L156.854 36.2974L172.404 36.1807V32.8584V29.536H152.715H133.027V40.186ZM427.015 39.9641V50.3922H431.266H435.517V43.2922V36.1923H451.179H466.84V32.8641V29.536H446.928H427.015V39.9641ZM0.289515 39.4844C0.631384 42.3697 2.76896 48.4215 4.4953 51.3915C8.60309 58.4582 16.1609 64.2283 23.8762 66.1883C27.9562 67.2249 36.8636 66.8566 40.7472 65.4907C48.7507 62.6756 56.2355 55.4758 59.6202 47.3366C60.7277 44.6736 62.3261 38.8902 62.3261 37.547C62.3261 37.2528 60.755 37.0798 58.0836 37.0798H53.8411L53.5699 38.3001C52.1604 44.6395 49.8564 49.3836 46.5621 52.7285C41.8699 57.4926 37.4628 59.3213 30.7109 59.3058C24.3102 59.2907 20.0073 57.3315 15.3814 52.3252C12.2079 48.8906 10.312 45.3268 9.15885 40.6297L8.34221 37.3016L4.17133 37.1734L0 37.0447L0.289515 39.4844ZM133.027 62.8172V66.3671H155.624H178.221V62.8172V59.2672H155.624H133.027V62.8172ZM427.015 62.8172V66.3671H449.613H472.21V62.8172V59.2672H449.613H427.015V62.8172Z" fill="black"/>
<path fill-rule="evenodd" clip-rule="evenodd" d="M27.0233 0.265505C17.6487 1.53418 8.37622 8.37456 3.72386 17.4537C2.01094 20.7955 0.731619 24.4245 0.330237 27.0786L0.0259562 29.0923H4.27335H8.52075L9.26132 26.1675C11.7452 16.3625 19.6337 8.71714 28.1446 7.86647C35.5941 7.12186 40.7374 8.94966 46.1016 14.2471C49.5754 17.6777 51.8713 21.687 53.0791 26.4298L53.7002 28.8704L57.7896 28.9982C61.8088 29.1233 61.8786 29.1078 61.8786 28.093C61.8786 26.1547 60.5156 21.7753 58.8054 18.2205C52.7672 5.66681 40.0791 -1.50106 27.0233 0.265505ZM311.344 0.112411C300.231 0.950208 290.689 7.56472 285.309 18.1601C280.774 27.0905 280.632 38.6919 284.94 48.3483C288.809 57.0178 297.55 64.3663 306.143 66.1728C310.222 67.0297 316.915 66.9831 320.264 66.0743C321.757 65.6687 323.053 65.2782 323.145 65.2059C323.237 65.134 322.138 63.749 320.704 62.1289L318.096 59.1833L315.381 59.4717C304.921 60.5824 295.64 54.0869 291.527 42.7753C290.472 39.8749 290.345 38.892 290.356 33.7516C290.367 28.7067 290.52 27.533 291.567 24.3983C293.826 17.6347 298.59 12.1265 304.654 9.26605C316.82 3.52794 331.125 11.4986 335.06 26.2079C335.995 29.7007 336.022 36.4913 335.116 40.2938C334.454 43.0708 332.149 48.2028 330.712 50.0971C330.138 50.8533 329.921 50.7037 327.655 47.9942L325.216 45.0779L321.3 45.0725C319.147 45.0694 317.385 45.1711 317.385 45.298C317.385 45.4249 321.441 50.2174 326.399 55.9479L335.413 66.3671H339.43C343.141 66.3671 343.5 66.5 342.833 65.6199C342.513 65.1963 340.674 63.0768 338.785 60.8815L335.35 56.89L336.863 55.1381C338.839 52.8492 341.654 47.4187 342.889 43.5141C345.058 36.6578 344.489 27.079 341.487 19.92C337.214 9.7311 326.921 1.37621 317.497 0.446553C316.082 0.306772 314.521 0.144359 314.029 0.0848966C313.537 0.0258781 312.328 0.0383048 311.344 0.112411ZM496.975 1.06736C492.444 2.2109 489.104 4.0245 486.496 6.75843C483.115 10.304 481.877 13.2997 481.678 18.4135C481.492 23.1909 481.983 25.3005 483.938 28.1178C486.548 31.8799 490.428 33.6664 503.98 37.3473C515.862 40.5743 519.926 43.0087 520.887 47.4746C521.326 49.5167 520.962 52.7698 520.119 54.3314C519.292 55.8641 516.599 57.8348 514.201 58.6632C510.442 59.9621 500.423 59.8445 495.942 58.4489C491.771 57.1501 487.887 55.2424 484.886 53.0183L482.572 51.3032L480.766 54.5089L478.961 57.7141L480.62 59.1562C483.161 61.3666 489.836 64.4608 494.807 65.733C500.532 67.1983 510.066 67.4335 514.72 66.2243C521.358 64.4985 526.101 60.9175 528.509 55.8139C529.557 53.5894 529.705 52.729 529.699 48.8391C529.694 45.239 529.51 44.0053 528.723 42.3013C525.766 35.8949 521.631 33.6167 505.567 29.5414C500.728 28.3135 496.006 26.9232 495.074 26.452C491.365 24.5754 489.289 20.6748 489.889 16.7095C490.601 11.9969 493.397 9.22035 498.613 8.04397C506.411 6.28539 515.363 8.06394 521.307 12.5525L523.202 13.9844L524.975 10.8023C525.949 9.05172 526.644 7.45556 526.52 7.25543C525.945 6.33288 519.058 2.77268 515.838 1.73342C510.98 0.165217 501.831 -0.157832 496.975 1.06736ZM74.4078 13.783V26.8735H78.6588H82.9098V17.2983V7.72314L93.7609 7.86869C103.884 8.00492 104.732 8.07903 106.402 8.9754C108.872 10.3009 111.309 12.919 112.531 15.558C114.065 18.8759 114.007 24.8225 112.406 28.2075C111.03 31.1153 108.881 33.362 106.412 34.4745C104.784 35.2076 103.168 35.2861 89.51 35.295L74.4078 35.3048V50.836V66.3671H78.6588H82.9098V54.6078V42.8485H93.7788C105.82 42.8485 108.118 42.5126 112.293 40.1438C118.039 36.8836 122.287 28.9032 122.287 21.3675C122.287 12.9789 116.052 4.26146 108.114 1.55326C105.805 0.765609 104.265 0.69239 89.999 0.69239H74.4078V13.783ZM133.027 10.6767V20.6611H137.042H141.056L141.181 14.3377L141.305 8.01424L159.316 7.89842L177.326 7.78216V4.23749V0.69239H155.176H133.027V10.6767ZM189.855 3.18226V5.67213L214.354 36.0179L238.854 66.364L242.545 66.3654L246.237 66.3671V33.5298V0.69239H241.989H237.742L237.627 26.2558L237.511 51.8193L216.995 26.2558L196.478 0.69239H193.167H189.855V3.18226ZM355.42 20.3904C355.42 36.5126 355.549 40.7615 356.129 43.7981C358.436 55.8636 365.305 63.7206 375.663 66.1426C377.204 66.5029 378.615 66.8007 378.8 66.8042C378.985 66.8078 379.136 65.1451 379.136 63.1091V59.4078L377.234 58.854C372.942 57.6045 368.507 53.6981 366.43 49.3379C363.836 43.8913 363.788 43.4169 363.592 21.2158L363.411 0.69239H359.415H355.42V20.3904ZM403.625 20.3283C403.401 42.182 403.242 43.6104 400.395 49.3472C398.346 53.478 394.56 57.0449 390.771 58.4152L388.085 59.3861V63.0985C388.085 65.1402 388.236 66.8078 388.421 66.8042C390.126 66.771 395.12 65.13 397.472 63.8298C403.758 60.3557 408.075 54.3988 410.349 46.0608L411.528 41.7391L411.696 21.2158L411.865 0.69239H407.845H403.826L403.625 20.3283ZM427.015 10.6767V20.6611H431.266H435.517V14.2267V7.79236H453.416H471.315V4.24238V0.69239H449.165H427.015V10.6767ZM534.856 4.24238V7.79236H561.928H589V4.24238V0.69239H561.928H534.856V4.24238ZM558.124 41.2954V66.3671H562.152H566.179V41.2954V16.2236H562.152H558.124V41.2954ZM189.855 42.5729V66.3671H194.106H198.357V48.0053V29.6434L194.106 24.2111L189.855 18.7787V42.5729ZM133.027 40.186V50.836H137.043H141.059L141.182 43.625L141.305 36.4141L156.854 36.2974L172.404 36.1807V32.8584V29.536H152.715H133.027V40.186ZM427.015 39.9641V50.3922H431.266H435.517V43.2922V36.1923H451.179H466.84V32.8641V29.536H446.928H427.015V39.9641ZM0.289515 39.4844C0.631384 42.3697 2.76896 48.4215 4.4953 51.3915C8.60309 58.4582 16.1609 64.2283 23.8762 66.1883C27.9562 67.2249 36.8636 66.8566 40.7472 65.4907C48.7507 62.6756 56.2355 55.4758 59.6202 47.3366C60.7277 44.6736 62.3261 38.8902 62.3261 37.547C62.3261 37.2528 60.755 37.0798 58.0836 37.0798H53.8411L53.5699 38.3001C52.1604 44.6395 49.8564 49.3836 46.5621 52.7285C41.8699 57.4926 37.4628 59.3213 30.7109 59.3058C24.3102 59.2907 20.0073 57.3315 15.3814 52.3252C12.2079 48.8906 10.312 45.3268 9.15885 40.6297L8.34221 37.3016L4.17133 37.1734L0 37.0447L0.289515 39.4844ZM133.027 62.8172V66.3671H155.624H178.221V62.8172V59.2672H155.624H133.027V62.8172ZM427.015 62.8172V66.3671H449.613H472.21V62.8172V59.2672H449.613H427.015V62.8172Z" fill="url(#paint0_linear_625_71)"/>
<defs>
<linearGradient id="paint0_linear_625_71" x1="1.0971e-06" y1="33.5" x2="569.857" y2="33.5" gradientUnits="userSpaceOnUse">
<stop stop-color="#436BFA"/>
<stop offset="1" stop-color="#10BBF6"/>
</linearGradient>
</defs>
</svg>
