<svg width="18" height="18" viewBox="0 0 18 18" fill="none" xmlns="http://www.w3.org/2000/svg">
<g clip-path="url(#clip0_633_647)">
<path fill-rule="evenodd" clip-rule="evenodd" d="M5.875 6.5C5.875 4.77411 7.27411 3.375 9 3.375C10.7258 3.375 12.125 4.77411 12.125 6.5C12.125 8.22589 10.7258 9.625 9 9.625C7.27411 9.625 5.875 8.22589 5.875 6.5ZM9 4.625C7.96447 4.625 7.125 5.46446 7.125 6.5C7.125 7.53553 7.96447 8.375 9 8.375C10.0355 8.375 10.875 7.53553 10.875 6.5C10.875 5.46446 10.0355 4.625 9 4.625Z" fill="white"/>
<path fill-rule="evenodd" clip-rule="evenodd" d="M0.0410156 8.99935C0.0410156 4.0518 4.0518 0.0410156 8.99935 0.0410156C13.9469 0.0410156 17.9577 4.0518 17.9577 8.99935C17.9577 13.9469 13.9469 17.9577 8.99935 17.9577C4.0518 17.9577 0.0410156 13.9469 0.0410156 8.99935ZM8.99935 1.29101C4.74215 1.29101 1.29102 4.74215 1.29102 8.99935C1.29102 11.1207 2.14791 13.0418 3.53444 14.4356C3.68476 13.6247 3.98013 12.8601 4.57299 12.2453C5.45979 11.3256 6.87782 10.8743 8.99931 10.8743C11.1208 10.8743 12.5388 11.3256 13.4256 12.2453C14.0185 12.8601 14.3139 13.6247 14.4642 14.4357C15.8508 13.0419 16.7077 11.1207 16.7077 8.99935C16.7077 4.74215 13.2566 1.29101 8.99935 1.29101ZM13.3274 15.3788C13.2425 14.3689 13.0232 13.6288 12.5258 13.1129C11.9846 12.5516 10.9818 12.1243 8.99931 12.1243C7.01684 12.1243 6.01403 12.5516 5.4728 13.1129C4.97541 13.6287 4.75611 14.3689 4.6712 15.3788C5.90505 16.2175 7.39496 16.7077 8.99935 16.7077C10.6037 16.7077 12.0936 16.2175 13.3274 15.3788Z" fill="white"/>
</g>
<defs>
<clipPath id="clip0_633_647">
<rect width="18" height="18" fill="white"/>
</clipPath>
</defs>
</svg>
