<svg width="16" height="16" viewBox="0 0 16 16" fill="none" xmlns="http://www.w3.org/2000/svg">
<g clip-path="url(#clip0_633_656)">
<mask id="mask0_633_656" style="mask-type:luminance" maskUnits="userSpaceOnUse" x="0" y="0" width="16" height="16">
<path d="M16 0H0V16H16V0Z" fill="white"/>
</mask>
<g mask="url(#mask0_633_656)">
<path d="M16 8C16 12.4183 12.4183 16 8 16C3.58175 16 0 12.4183 0 8L8 0C12.4183 0 16 3.58175 16 8Z" fill="#0052B4"/>
<path d="M7.97852 7.99997H7.99996C7.99996 7.9927 7.99996 7.98576 7.99996 7.97852C7.99283 7.98569 7.98569 7.99283 7.97852 7.99997Z" fill="#F0F0F0"/>
<path d="M8 4.1739C8 2.76625 8 1.84384 8 0H7.99865C3.581 0.000718749 0 3.58212 0 7.99997H4.1739V5.64959L6.52428 7.99997H7.97862C7.98578 7.99284 7.9929 7.98572 8.00003 7.97856C8.00003 7.43959 8.00003 6.95869 8.00003 6.52431L5.64962 4.1739H8Z" fill="#F0F0F0"/>
<path d="M4.04879 1.04297C2.79757 1.75544 1.75738 2.79562 1.04492 4.04684V7.9995H3.13188V3.12997L8.00145 3.12994C8.00145 2.47172 8.00145 1.84465 8.00145 1.04297H4.04879Z" fill="#D80027"/>
<path d="M7.99989 7.01609L5.15761 4.17384H4.17383L7.99986 7.99988C7.99986 7.99988 7.99989 7.32159 7.99989 7.01609Z" fill="#D80027"/>
<path d="M4.82486 9.39062L5.26392 10.3087L6.25539 10.0795L5.81139 10.9952L6.6087 11.6275L5.61598 11.8512L5.61877 12.8689L4.82486 12.2322L4.03098 12.8689L4.03377 11.8512L3.04102 11.6275L3.83836 10.9952L3.3943 10.0795L4.38583 10.3087L4.82486 9.39062Z" fill="#F0F0F0"/>
<path d="M11.9778 11.1309L12.1974 11.5899L12.6931 11.4753L12.4711 11.9332L12.8698 12.2493L12.3734 12.3612L12.3748 12.87L11.9778 12.5517L11.5809 12.87L11.5823 12.3612L11.0859 12.2493L11.4846 11.9332L11.2626 11.4753L11.7583 11.5899L11.9778 11.1309Z" fill="#F0F0F0"/>
<path d="M9.93491 6.26172L10.1544 6.72078L10.6502 6.60616L10.4282 7.064L10.8268 7.38016L10.3305 7.49203L10.3318 8.00085L9.93491 7.6825L9.53797 8.00085L9.53931 7.49203L9.04297 7.38016L9.44162 7.064L9.21963 6.60616L9.71537 6.72078L9.93491 6.26172Z" fill="#F0F0F0"/>
<path d="M11.9778 3.47852L12.1974 3.93758L12.6931 3.82298L12.4711 4.28083L12.8697 4.59695L12.3734 4.70886L12.3748 5.21767L11.9778 4.89933L11.5809 5.21767L11.5823 4.70886L11.0859 4.59695L11.4846 4.28083L11.2626 3.82298L11.7583 3.93758L11.9778 3.47852Z" fill="#F0F0F0"/>
<path d="M13.7611 5.56445L13.9806 6.02351L14.4763 5.90889L14.2543 6.36673L14.653 6.68289L14.1566 6.79479L14.158 7.30358L13.7611 6.98526L13.3641 7.30358L13.3655 6.79479L12.8691 6.68289L13.2678 6.36673L13.0458 5.90889L13.5415 6.02351L13.7611 5.56445Z" fill="#F0F0F0"/>
<path d="M12.4874 8L12.66 8.53144H13.2188L12.7667 8.8599L12.9394 9.39131L12.4874 9.06287L12.0353 9.39131L12.2079 8.8599L11.7559 8.53144H12.3147L12.4874 8Z" fill="#F0F0F0"/>
</g>
</g>
<defs>
<clipPath id="clip0_633_656">
<rect width="16" height="16" fill="white"/>
</clipPath>
</defs>
</svg>
