<svg width="39" height="51" viewBox="0 0 39 51" fill="none" xmlns="http://www.w3.org/2000/svg">
<g clip-path="url(#clip0_633_672)">
<g filter="url(#filter0_d_633_672)">
<path d="M14.9975 28.0879L19.6164 30.7546L10.237 47.0003L7.54492 40.9963L14.9975 28.0879Z" fill="#AA75CB"/>
<path d="M14.9983 28.0866L10.3795 25.4199L1 41.6656L7.54563 40.995L14.9983 28.0866Z" fill="#73488D"/>
<path d="M21.5877 28.0879L16.9688 30.7546L26.3482 47.0003L29.0403 40.9963L21.5877 28.0879Z" fill="#73488D"/>
<path d="M21.5879 28.0866L26.2068 25.4199L35.5862 41.6656L29.0406 40.995L21.5879 28.0866Z" fill="#AA75CB"/>
<path d="M18.286 32.9432C27.1457 32.9432 34.3279 25.761 34.3279 16.9013C34.3279 8.04158 27.1457 0.859375 18.286 0.859375C9.42634 0.859375 2.24414 8.04158 2.24414 16.9013C2.24414 25.761 9.42634 32.9432 18.286 32.9432Z" fill="#DC9E42" stroke="#774700" stroke-width="0.280189"/>
<path d="M18.2858 29.3139C25.1412 29.3139 30.6986 23.7565 30.6986 16.9011C30.6986 10.0457 25.1412 4.48828 18.2858 4.48828C11.4304 4.48828 5.87305 10.0457 5.87305 16.9011C5.87305 23.7565 11.4304 29.3139 18.2858 29.3139Z" fill="#734C12"/>
<mask id="mask0_633_672" style="mask-type:alpha" maskUnits="userSpaceOnUse" x="6" y="5" width="26" height="26">
<path d="M18.9476 30.6686C25.8189 30.6686 31.3893 25.0982 31.3893 18.2269C31.3893 11.3555 25.8189 5.78516 18.9476 5.78516C12.0762 5.78516 6.50586 11.3555 6.50586 18.2269C6.50586 25.0982 12.0762 30.6686 18.9476 30.6686Z" fill="#C28B37"/>
</mask>
<g mask="url(#mask0_633_672)">
<path d="M18.2854 29.3424C25.1568 29.3424 30.7271 23.772 30.7271 16.9007C30.7271 10.0293 25.1568 4.45898 18.2854 4.45898C11.4141 4.45898 5.84375 10.0293 5.84375 16.9007C5.84375 23.772 11.4141 29.3424 18.2854 29.3424Z" fill="#A36D1D"/>
</g>
<path d="M18.3523 8.24609L21.0362 13.6138L26.4039 14.2848L22.7181 18.4179L23.72 24.3493L18.3523 21.6654L12.9846 24.3493L13.9955 18.4179L10.3008 14.2848L15.6685 13.6138L18.3523 8.24609Z" fill="url(#paint0_linear_633_672)"/>
</g>
</g>
<defs>
<filter id="filter0_d_633_672" x="0.780468" y="0.499218" width="38.0984" height="49.7937" filterUnits="userSpaceOnUse" color-interpolation-filters="sRGB">
<feFlood flood-opacity="0" result="BackgroundImageFix"/>
<feColorMatrix in="SourceAlpha" type="matrix" values="0 0 0 0 0 0 0 0 0 0 0 0 0 0 0 0 0 0 127 0" result="hardAlpha"/>
<feOffset dx="1.53669" dy="1.53669"/>
<feGaussianBlur stdDeviation="0.878111"/>
<feComposite in2="hardAlpha" operator="out"/>
<feColorMatrix type="matrix" values="0 0 0 0 0 0 0 0 0 0 0 0 0 0 0 0 0 0 0.3 0"/>
<feBlend mode="normal" in2="BackgroundImageFix" result="effect1_dropShadow_633_672"/>
<feBlend mode="normal" in="SourceGraphic" in2="effect1_dropShadow_633_672" result="shape"/>
</filter>
<linearGradient id="paint0_linear_633_672" x1="18.3523" y1="8.24609" x2="18.3523" y2="24.3493" gradientUnits="userSpaceOnUse">
<stop stop-color="#FCFF80"/>
<stop offset="0.401042" stop-color="#FDE870"/>
<stop offset="1" stop-color="#FFC759"/>
</linearGradient>
<clipPath id="clip0_633_672">
<rect width="39" height="51" fill="white"/>
</clipPath>
</defs>
</svg>
