<svg width="20" height="20" viewBox="0 0 20 20" fill="none" xmlns="http://www.w3.org/2000/svg">
<path d="M14.1667 11.6667C14.3877 11.6667 14.5996 11.5789 14.7559 11.4226C14.9122 11.2663 15 11.0543 15 10.8333C15 10.6123 14.9122 10.4004 14.7559 10.2441C14.5996 10.0878 14.3877 10 14.1667 10C13.9457 10 13.7337 10.0878 13.5774 10.2441C13.4211 10.4004 13.3333 10.6123 13.3333 10.8333C13.3333 11.0543 13.4211 11.2663 13.5774 11.4226C13.7337 11.5789 13.9457 11.6667 14.1667 11.6667ZM14.1667 15C14.3877 15 14.5996 14.9122 14.7559 14.7559C14.9122 14.5996 15 14.3877 15 14.1667C15 13.9457 14.9122 13.7337 14.7559 13.5774C14.5996 13.4211 14.3877 13.3333 14.1667 13.3333C13.9457 13.3333 13.7337 13.4211 13.5774 13.5774C13.4211 13.7337 13.3333 13.9457 13.3333 14.1667C13.3333 14.3877 13.4211 14.5996 13.5774 14.7559C13.7337 14.9122 13.9457 15 14.1667 15ZM10.8333 10.8333C10.8333 11.0543 10.7455 11.2663 10.5893 11.4226C10.433 11.5789 10.221 11.6667 10 11.6667C9.77899 11.6667 9.56702 11.5789 9.41074 11.4226C9.25446 11.2663 9.16667 11.0543 9.16667 10.8333C9.16667 10.6123 9.25446 10.4004 9.41074 10.2441C9.56702 10.0878 9.77899 10 10 10C10.221 10 10.433 10.0878 10.5893 10.2441C10.7455 10.4004 10.8333 10.6123 10.8333 10.8333ZM10.8333 14.1667C10.8333 14.3877 10.7455 14.5996 10.5893 14.7559C10.433 14.9122 10.221 15 10 15C9.77899 15 9.56702 14.9122 9.41074 14.7559C9.25446 14.5996 9.16667 14.3877 9.16667 14.1667C9.16667 13.9457 9.25446 13.7337 9.41074 13.5774C9.56702 13.4211 9.77899 13.3333 10 13.3333C10.221 13.3333 10.433 13.4211 10.5893 13.5774C10.7455 13.7337 10.8333 13.9457 10.8333 14.1667ZM5.83333 11.6667C6.05435 11.6667 6.26631 11.5789 6.42259 11.4226C6.57887 11.2663 6.66667 11.0543 6.66667 10.8333C6.66667 10.6123 6.57887 10.4004 6.42259 10.2441C6.26631 10.0878 6.05435 10 5.83333 10C5.61232 10 5.40036 10.0878 5.24408 10.2441C5.0878 10.4004 5 10.6123 5 10.8333C5 11.0543 5.0878 11.2663 5.24408 11.4226C5.40036 11.5789 5.61232 11.6667 5.83333 11.6667ZM5.83333 15C6.05435 15 6.26631 14.9122 6.42259 14.7559C6.57887 14.5996 6.66667 14.3877 6.66667 14.1667C6.66667 13.9457 6.57887 13.7337 6.42259 13.5774C6.26631 13.4211 6.05435 13.3333 5.83333 13.3333C5.61232 13.3333 5.40036 13.4211 5.24408 13.5774C5.0878 13.7337 5 13.9457 5 14.1667C5 14.3877 5.0878 14.5996 5.24408 14.7559C5.40036 14.9122 5.61232 15 5.83333 15Z" fill="#47525A"/>
<path fill-rule="evenodd" clip-rule="evenodd" d="M5.83269 1.45898C5.99845 1.45898 6.15742 1.52483 6.27463 1.64204C6.39184 1.75925 6.45769 1.91822 6.45769 2.08398V2.71982C7.00936 2.70898 7.61686 2.70898 8.28519 2.70898H11.7127C12.3818 2.70898 12.9893 2.70898 13.541 2.71982V2.08398C13.541 1.91822 13.6069 1.75925 13.7241 1.64204C13.8413 1.52483 14.0002 1.45898 14.166 1.45898C14.3318 1.45898 14.4907 1.52483 14.6079 1.64204C14.7252 1.75925 14.791 1.91822 14.791 2.08398V2.77315C15.0077 2.78982 15.2127 2.81065 15.4068 2.83648C16.3835 2.96815 17.1743 3.24482 17.7985 3.86815C18.4218 4.49232 18.6985 5.28315 18.8302 6.25982C18.9577 7.20982 18.9577 8.42232 18.9577 9.95398V11.714C18.9577 13.2456 18.9577 14.459 18.8302 15.4081C18.6985 16.3848 18.4218 17.1756 17.7985 17.7998C17.1743 18.4231 16.3835 18.6998 15.4068 18.8315C14.4568 18.959 13.2443 18.959 11.7127 18.959H8.28602C6.75436 18.959 5.54102 18.959 4.59186 18.8315C3.61519 18.6998 2.82436 18.4231 2.20019 17.7998C1.57686 17.1756 1.30019 16.3848 1.16852 15.4081C1.04102 14.4581 1.04102 13.2456 1.04102 11.714V9.95398C1.04102 8.42232 1.04102 7.20898 1.16852 6.25982C1.30019 5.28315 1.57686 4.49232 2.20019 3.86815C2.82436 3.24482 3.61519 2.96815 4.59186 2.83648C4.78602 2.81065 4.99186 2.78982 5.20769 2.77315V2.08398C5.20769 1.91822 5.27354 1.75925 5.39075 1.64204C5.50796 1.52483 5.66693 1.45898 5.83269 1.45898ZM4.75769 4.07565C3.92019 4.18815 3.43686 4.39982 3.08436 4.75232C2.73186 5.10482 2.52019 5.58815 2.40769 6.42648C2.38852 6.56815 2.37269 6.71815 2.35936 6.87565H17.6393C17.626 6.71732 17.6102 6.56815 17.591 6.42565C17.4785 5.58815 17.2668 5.10482 16.9143 4.75232C16.5618 4.39982 16.0785 4.18815 15.2402 4.07565C14.3843 3.96065 13.2552 3.95898 11.666 3.95898H8.33269C6.74352 3.95898 5.61519 3.96065 4.75769 4.07565ZM2.29102 10.0007C2.29102 9.28898 2.29102 8.66982 2.30186 8.12565H17.6968C17.7077 8.66982 17.7077 9.28898 17.7077 10.0007V11.6673C17.7077 13.2565 17.706 14.3856 17.591 15.2423C17.4785 16.0798 17.2668 16.5631 16.9143 16.9156C16.5618 17.2681 16.0785 17.4798 15.2402 17.5923C14.3843 17.7073 13.2552 17.709 11.666 17.709H8.33269C6.74352 17.709 5.61519 17.7073 4.75769 17.5923C3.92019 17.4798 3.43686 17.2681 3.08436 16.9156C2.73186 16.5631 2.52019 16.0798 2.40769 15.2415C2.29269 14.3856 2.29102 13.2565 2.29102 11.6673V10.0007Z" fill="#47525A"/>
</svg>
