<svg width="16" height="16" viewBox="0 0 16 16" fill="none" xmlns="http://www.w3.org/2000/svg">
<g clip-path="url(#clip0_633_694)">
<mask id="mask0_633_694" style="mask-type:luminance" maskUnits="userSpaceOnUse" x="0" y="0" width="16" height="16">
<path d="M16 0H0V16H16V0Z" fill="white"/>
</mask>
<g mask="url(#mask0_633_694)">
<path fill-rule="evenodd" clip-rule="evenodd" d="M8.47221 10.4722C8.34719 10.5972 8.17765 10.6674 8.00087 10.6674C7.8241 10.6674 7.65456 10.5972 7.52954 10.4722L3.75821 6.70087C3.69453 6.63938 3.64374 6.56581 3.60881 6.48448C3.57387 6.40314 3.55548 6.31566 3.55471 6.22714C3.55394 6.13862 3.5708 6.05083 3.60433 5.9689C3.63785 5.88697 3.68735 5.81254 3.74994 5.74994C3.81254 5.68735 3.88697 5.63785 3.9689 5.60433C4.05083 5.5708 4.13862 5.55394 4.22714 5.55471C4.31566 5.55548 4.40314 5.57387 4.48448 5.60881C4.56581 5.64374 4.63938 5.69453 4.70087 5.75821L8.00087 9.05821L11.3009 5.75821C11.4266 5.63677 11.595 5.56957 11.7698 5.57109C11.9446 5.57261 12.1118 5.64272 12.2354 5.76633C12.3591 5.88993 12.4292 6.05714 12.4307 6.23194C12.4322 6.40674 12.365 6.57514 12.2436 6.70087L8.47221 10.4722Z" fill="#697C89"/>
</g>
</g>
<defs>
<clipPath id="clip0_633_694">
<rect width="16" height="16" fill="white"/>
</clipPath>
</defs>
</svg>
