<svg width="20" height="20" viewBox="0 0 20 20" fill="none" xmlns="http://www.w3.org/2000/svg">
<g clip-path="url(#clip0_633_700)">
<mask id="mask0_633_700" style="mask-type:luminance" maskUnits="userSpaceOnUse" x="0" y="0" width="20" height="20">
<path d="M0 0L0 20H20V0H0Z" fill="white"/>
</mask>
<g mask="url(#mask0_633_700)">
<path fill-rule="evenodd" clip-rule="evenodd" d="M13.0883 9.41098C13.2446 9.56725 13.3323 9.77918 13.3323 10.0002C13.3323 10.2211 13.2446 10.4331 13.0883 10.5893L8.37415 15.3035C8.29728 15.3831 8.20532 15.4466 8.10365 15.4903C8.00198 15.5339 7.89263 15.5569 7.78198 15.5579C7.67133 15.5588 7.5616 15.5378 7.45919 15.4959C7.35677 15.454 7.26373 15.3921 7.18549 15.3138C7.10724 15.2356 7.04536 15.1426 7.00346 15.0401C6.96156 14.9377 6.94048 14.828 6.94144 14.7173C6.9424 14.6067 6.96539 14.4973 7.00906 14.3957C7.05274 14.294 7.11622 14.202 7.19582 14.1252L11.3208 10.0002L7.19581 5.87515C7.04402 5.71798 6.96002 5.50748 6.96192 5.28898C6.96382 5.07048 7.05146 4.86147 7.20597 4.70697C7.36047 4.55246 7.56948 4.46482 7.78798 4.46292C8.00648 4.46102 8.21698 4.54502 8.37415 4.69681L13.0883 9.41098Z" fill="#DCE3F1"/>
</g>
</g>
<defs>
<clipPath id="clip0_633_700">
<rect width="20" height="20" fill="white"/>
</clipPath>
</defs>
</svg>
