<svg width="24" height="24" viewBox="0 0 24 24" fill="none" xmlns="http://www.w3.org/2000/svg">
<path fill-rule="evenodd" clip-rule="evenodd" d="M18.851 6.45105C18.9365 6.36563 19.0044 6.26422 19.0507 6.15258C19.097 6.04094 19.1209 5.92128 19.121 5.80041C19.1211 5.67955 19.0973 5.55985 19.0512 5.44816C19.005 5.33647 18.9372 5.23496 18.8518 5.14945C18.7664 5.06393 18.665 4.99607 18.5534 4.94975C18.4417 4.90343 18.3221 4.87955 18.2012 4.87948C18.0803 4.8794 17.9606 4.90313 17.8489 4.94932C17.7372 4.9955 17.6357 5.06323 17.5502 5.14865L11.9998 10.6991L6.45105 5.14865C6.27834 4.97594 6.04409 4.87891 5.79985 4.87891C5.5556 4.87891 5.32135 4.97594 5.14865 5.14865C4.97594 5.32136 4.87891 5.5556 4.87891 5.79985C4.87891 6.04409 4.97594 6.27834 5.14865 6.45105L10.699 11.9999L5.14865 17.5487C5.06313 17.6342 4.99529 17.7357 4.94901 17.8475C4.90273 17.9592 4.87891 18.0789 4.87891 18.1999C4.87891 18.3208 4.90273 18.4406 4.94901 18.5523C4.99529 18.664 5.06313 18.7656 5.14865 18.8511C5.32135 19.0238 5.5556 19.1208 5.79985 19.1208C5.92078 19.1208 6.04054 19.097 6.15227 19.0507C6.26401 19.0044 6.36553 18.9366 6.45105 18.8511L11.9998 13.3007L17.5502 18.8511C17.7229 19.0236 17.9571 19.1204 18.2012 19.1203C18.4453 19.1201 18.6793 19.023 18.8518 18.8503C19.0243 18.6776 19.1211 18.4434 19.121 18.1993C19.1208 17.9552 19.0237 17.7212 18.851 17.5487L13.3006 11.9999L18.851 6.45105Z" fill="black"/>
</svg>
