<svg width="16" height="16" viewBox="0 0 16 16" fill="none" xmlns="http://www.w3.org/2000/svg">
<g clip-path="url(#clip0_633_508)">
<mask id="mask0_633_508" style="mask-type:luminance" maskUnits="userSpaceOnUse" x="0" y="0" width="16" height="16">
<path d="M16 0H0V16H16V0Z" fill="white"/>
</mask>
<g mask="url(#mask0_633_508)">
<path d="M5.66731 9.77843C5.66731 10.6375 6.36376 11.334 7.22287 11.334H8.66731C9.58779 11.334 10.334 10.5878 10.334 9.66732C10.334 8.74684 9.58779 8.00065 8.66731 8.00065H7.33398C6.4135 8.00065 5.66731 7.25446 5.66731 6.33398C5.66731 5.41351 6.4135 4.66732 7.33398 4.66732H8.77842C9.63753 4.66732 10.334 5.36376 10.334 6.22287M8.00064 3.66732V4.66732M8.00064 11.334V12.334M14.6673 8.00065C14.6673 11.6825 11.6826 14.6673 8.00064 14.6673C4.31875 14.6673 1.33398 11.6825 1.33398 8.00065C1.33398 4.31875 4.31875 1.33398 8.00064 1.33398C11.6826 1.33398 14.6673 4.31875 14.6673 8.00065Z" stroke="#7B8EC8" stroke-linecap="round" stroke-linejoin="round"/>
</g>
</g>
<defs>
<clipPath id="clip0_633_508">
<rect width="16" height="16" fill="white"/>
</clipPath>
</defs>
</svg>
