<svg width="18" height="18" viewBox="0 0 18 18" fill="none" xmlns="http://www.w3.org/2000/svg">
<path d="M9.58522 16.2188C9.29947 16.575 8.69947 16.575 8.41372 16.2188L2.41372 8.71875C2.3257 8.60835 2.2706 8.47535 2.25475 8.33505C2.23889 8.19474 2.26293 8.0528 2.32409 7.92554C2.38526 7.79828 2.48107 7.69084 2.60054 7.61557C2.72 7.5403 2.85827 7.50024 2.99947 7.5H5.99947V2.25C5.99947 2.05109 6.07849 1.86032 6.21914 1.71967C6.35979 1.57902 6.55056 1.5 6.74947 1.5H11.2495C11.4484 1.5 11.6391 1.57902 11.7798 1.71967C11.9204 1.86032 11.9995 2.05109 11.9995 2.25V7.5H14.9995C15.1407 7.50024 15.2789 7.5403 15.3984 7.61557C15.5179 7.69084 15.6137 7.79828 15.6748 7.92554C15.736 8.0528 15.76 8.19474 15.7442 8.33505C15.7283 8.47535 15.6732 8.60835 15.5852 8.71875L9.58522 16.2188ZM11.2495 9H10.4995V3H7.49947V9H4.56022L8.99947 14.5493L13.4387 9H11.2495Z" fill="#7B8EC8"/>
</svg>
