<svg width="14" height="14" viewBox="0 0 14 14" fill="none" xmlns="http://www.w3.org/2000/svg">
<g clip-path="url(#clip0_633_519)">
<mask id="mask0_633_519" style="mask-type:luminance" maskUnits="userSpaceOnUse" x="0" y="0" width="14" height="14">
<path d="M14 0H0V14H14V0Z" fill="white"/>
</mask>
<g mask="url(#mask0_633_519)">
<path d="M6.41602 2.33203H2.33269C2.02327 2.33203 1.72653 2.45495 1.50773 2.67374C1.28894 2.89253 1.16602 3.18928 1.16602 3.4987V11.6654C1.16602 11.9748 1.28894 12.2716 1.50773 12.4903C1.72653 12.7091 2.02327 12.8321 2.33269 12.8321H10.4993C10.8088 12.8321 11.1055 12.7091 11.3243 12.4903C11.5431 12.2716 11.666 11.9748 11.666 11.6654V7.58203" stroke="#2688E5" stroke-linecap="round" stroke-linejoin="round"/>
<path d="M10.791 1.45813C11.0231 1.22607 11.3378 1.0957 11.666 1.0957C11.9942 1.0957 12.3089 1.22607 12.541 1.45813C12.7731 1.6902 12.9034 2.00495 12.9034 2.33313C12.9034 2.66132 12.7731 2.97607 12.541 3.20813L6.99936 8.7498L4.66602 9.33313L5.24936 6.9998L10.791 1.45813Z" stroke="#2688E5" stroke-linecap="round" stroke-linejoin="round"/>
</g>
</g>
<defs>
<clipPath id="clip0_633_519">
<rect width="14" height="14" fill="white"/>
</clipPath>
</defs>
</svg>
