<svg width="14" height="14" viewBox="0 0 14 14" fill="none" xmlns="http://www.w3.org/2000/svg">
<path d="M13.536 6.85125C13.0215 5.52022 12.1282 4.36914 10.9665 3.54029C9.8049 2.71143 8.42584 2.24113 6.99982 2.1875C5.57379 2.24113 4.19474 2.71143 3.03309 3.54029C1.87145 4.36914 0.978134 5.52022 0.463564 6.85125C0.428812 6.94737 0.428812 7.05263 0.463564 7.14875C0.978134 8.47978 1.87145 9.63086 3.03309 10.4597C4.19474 11.2886 5.57379 11.7589 6.99982 11.8125C8.42584 11.7589 9.8049 11.2886 10.9665 10.4597C12.1282 9.63086 13.0215 8.47978 13.536 7.14875C13.5708 7.05263 13.5708 6.94737 13.536 6.85125ZM6.99982 10.9375C4.68107 10.9375 2.23107 9.21812 1.34294 7C2.23107 4.78187 4.68107 3.0625 6.99982 3.0625C9.31857 3.0625 11.7685 4.78187 12.6567 7C11.7685 9.21812 9.31857 10.9375 6.99982 10.9375Z" fill="#697C89"/>
<path d="M7 4.375C6.48082 4.375 5.97331 4.52895 5.54163 4.81739C5.10995 5.10583 4.7735 5.5158 4.57482 5.99546C4.37614 6.47511 4.32415 7.00291 4.42544 7.51211C4.52673 8.02131 4.77673 8.48904 5.14385 8.85616C5.51096 9.22327 5.97869 9.47328 6.48789 9.57456C6.99709 9.67585 7.52489 9.62386 8.00454 9.42518C8.4842 9.2265 8.89417 8.89005 9.18261 8.45837C9.47105 8.02669 9.625 7.51918 9.625 7C9.625 6.30381 9.34844 5.63613 8.85616 5.14384C8.36387 4.65156 7.69619 4.375 7 4.375ZM7 8.75C6.65388 8.75 6.31554 8.64736 6.02775 8.45507C5.73997 8.26278 5.51567 7.98947 5.38321 7.6697C5.25076 7.34993 5.2161 6.99806 5.28363 6.65859C5.35115 6.31913 5.51782 6.0073 5.76256 5.76256C6.00731 5.51782 6.31913 5.35115 6.65859 5.28363C6.99806 5.2161 7.34993 5.25076 7.6697 5.38321C7.98947 5.51566 8.26278 5.73997 8.45507 6.02775C8.64737 6.31554 8.75 6.65388 8.75 7C8.75 7.46413 8.56563 7.90925 8.23744 8.23744C7.90925 8.56563 7.46413 8.75 7 8.75Z" fill="#697C89"/>
</svg>
