<svg width="40" height="54" viewBox="0 0 40 54" fill="none" xmlns="http://www.w3.org/2000/svg">
<g filter="url(#filter0_d_633_529)">
<path d="M15.896 31.5645L20.464 34.164L11.1878 50.0005L8.52539 44.1477L15.896 31.5645Z" fill="#CE4444"/>
<path d="M15.8969 31.5644L11.3289 28.9648L2.05273 44.8013L8.52626 44.1476L15.8969 31.5644Z" fill="#983535"/>
<path d="M22.4137 31.5645L17.8457 34.164L27.1218 50.0005L29.7842 44.1477L22.4137 31.5645Z" fill="#983535"/>
<path d="M22.4141 31.5644L26.982 28.9648L36.2582 44.8013L29.7846 44.1476L22.4141 31.5644Z" fill="#CE4444"/>
<path d="M19.0156 36.2993C27.7759 36.2993 34.8809 29.2989 34.8809 20.6594C34.8809 12.0199 27.7759 5.01953 19.0156 5.01953C10.2554 5.01953 3.15039 12.0199 3.15039 20.6594C3.15039 29.2989 10.2554 36.2993 19.0156 36.2993Z" fill="url(#paint0_linear_633_529)" stroke="#765C00" stroke-width="0.277103"/>
<path d="M19.0144 32.759C25.7943 32.759 31.2905 27.3415 31.2905 20.6588C31.2905 13.976 25.7943 8.55859 19.0144 8.55859C12.2345 8.55859 6.73828 13.976 6.73828 20.6588C6.73828 27.3415 12.2345 32.759 19.0144 32.759Z" fill="#A88300"/>
<mask id="mask0_633_529" style="mask-type:alpha" maskUnits="userSpaceOnUse" x="7" y="9" width="25" height="26">
<path d="M19.6699 34.0789C26.4656 34.0789 31.9746 28.6488 31.9746 21.9506C31.9746 15.2523 26.4656 9.82227 19.6699 9.82227C12.8742 9.82227 7.36523 15.2523 7.36523 21.9506C7.36523 28.6488 12.8742 34.0789 19.6699 34.0789Z" fill="#C28B37"/>
</mask>
<g mask="url(#mask0_633_529)">
<path d="M19.0137 32.7878C25.8094 32.7878 31.3184 27.3578 31.3184 20.6596C31.3184 13.9613 25.8094 8.53125 19.0137 8.53125C12.218 8.53125 6.70898 13.9613 6.70898 20.6596C6.70898 27.3578 12.218 32.7878 19.0137 32.7878Z" fill="#C09525"/>
</g>
<path d="M19.082 12.2227L21.7363 17.4552L27.0449 18.1093L23.3997 22.1383L24.3906 27.9202L19.082 25.304L13.7734 27.9202L14.7732 22.1383L11.1191 18.1093L16.4277 17.4552L19.082 12.2227Z" fill="url(#paint1_linear_633_529)"/>
<path d="M3.80859 11.2625L5.53924 7.50821L3.80859 3.75391L7.61746 5.45977L11.4263 3.75391L9.69568 7.50821L11.4263 11.2625L7.61746 9.55665L3.80859 11.2625Z" fill="white"/>
</g>
<defs>
<filter id="filter0_d_633_529" x="1.83563" y="3.5368" width="37.6788" height="49.7198" filterUnits="userSpaceOnUse" color-interpolation-filters="sRGB">
<feFlood flood-opacity="0" result="BackgroundImageFix"/>
<feColorMatrix in="SourceAlpha" type="matrix" values="0 0 0 0 0 0 0 0 0 0 0 0 0 0 0 0 0 0 127 0" result="hardAlpha"/>
<feOffset dx="1.51977" dy="1.51977"/>
<feGaussianBlur stdDeviation="0.868438"/>
<feComposite in2="hardAlpha" operator="out"/>
<feColorMatrix type="matrix" values="0 0 0 0 0 0 0 0 0 0 0 0 0 0 0 0 0 0 0.3 0"/>
<feBlend mode="normal" in2="BackgroundImageFix" result="effect1_dropShadow_633_529"/>
<feBlend mode="normal" in="SourceGraphic" in2="effect1_dropShadow_633_529" result="shape"/>
</filter>
<linearGradient id="paint0_linear_633_529" x1="19.0156" y1="5.15808" x2="19.0156" y2="36.1607" gradientUnits="userSpaceOnUse">
<stop stop-color="#FFC600"/>
<stop offset="1" stop-color="#FFDE69"/>
</linearGradient>
<linearGradient id="paint1_linear_633_529" x1="19.082" y1="12.2227" x2="19.082" y2="27.9202" gradientUnits="userSpaceOnUse">
<stop stop-color="#FFFCDD"/>
<stop offset="1" stop-color="#FFE896"/>
</linearGradient>
</defs>
</svg>
