<svg width="20" height="20" viewBox="0 0 20 20" fill="none" xmlns="http://www.w3.org/2000/svg">
<path d="M8.39062 10.8043C8.73614 11.2662 9.17694 11.6484 9.68315 11.9249C10.1893 12.2015 10.7491 12.366 11.3245 12.4072C11.8998 12.4484 12.4773 12.3654 13.0178 12.1638C13.5582 11.9621 14.049 11.6467 14.4568 11.2387L16.8704 8.82508C17.6032 8.06639 18.0086 7.05025 17.9995 5.99552C17.9903 4.94079 17.5672 3.93185 16.8214 3.18602C16.0756 2.44018 15.0666 2.01712 14.0119 2.00796C12.9572 1.99879 11.941 2.40426 11.1823 3.13702L9.79856 4.51277" stroke="#47525A" stroke-width="1.2" stroke-linecap="round" stroke-linejoin="round"/>
<path d="M11.609 9.19521C11.2635 8.73331 10.8227 8.35111 10.3165 8.07454C9.81026 7.79798 9.2505 7.63352 8.67514 7.59231C8.09978 7.55111 7.52229 7.63412 6.98184 7.83573C6.44139 8.03733 5.95062 8.35281 5.54281 8.76076L3.12921 11.1744C2.39645 11.9331 1.99099 12.9492 2.00015 14.004C2.00932 15.0587 2.43238 16.0676 3.17821 16.8135C3.92405 17.5593 4.93298 17.9823 5.98771 17.9915C7.04244 18.0007 8.05858 17.5952 8.81726 16.8625L10.193 15.4867" stroke="#47525A" stroke-width="1.2" stroke-linecap="round" stroke-linejoin="round"/>
</svg>
