<svg width="20" height="20" viewBox="0 0 20 20" fill="none" xmlns="http://www.w3.org/2000/svg">
<path d="M10 6.45898C9.48223 6.45898 9.0625 6.87871 9.0625 7.39648C9.0625 7.74166 8.78268 8.02148 8.4375 8.02148C8.09232 8.02148 7.8125 7.74166 7.8125 7.39648C7.8125 6.18836 8.79188 5.20898 10 5.20898C11.2081 5.20898 12.1875 6.18836 12.1875 7.39648C12.1875 8.19926 11.7547 8.90029 11.1127 9.28012C10.9487 9.37712 10.8134 9.48304 10.7252 9.58695C10.6396 9.68784 10.625 9.75365 10.625 9.79231V10.834C10.625 11.1791 10.3451 11.459 10 11.459C9.65482 11.459 9.375 11.1791 9.375 10.834V9.79231C9.375 9.37074 9.55956 9.02868 9.77216 8.77816C9.98219 8.53067 10.244 8.34165 10.4762 8.2043C10.7537 8.04014 10.9375 7.73944 10.9375 7.39648C10.9375 6.87871 10.5177 6.45898 10 6.45898Z" fill="white"/>
<path d="M9.99935 14.1667C10.4596 14.1667 10.8327 13.7936 10.8327 13.3334C10.8327 12.8731 10.4596 12.5 9.99935 12.5C9.53911 12.5 9.16602 12.8731 9.16602 13.3334C9.16602 13.7936 9.53911 14.1667 9.99935 14.1667Z" fill="white"/>
<path fill-rule="evenodd" clip-rule="evenodd" d="M9.95153 1.04102H10.0472C11.9708 1.04101 13.4784 1.04101 14.6546 1.19915C15.8586 1.36101 16.8086 1.6988 17.5542 2.44447C18.2999 3.19015 18.6377 4.14017 18.7996 5.34411C18.9577 6.52035 18.9577 8.02788 18.9577 9.95155V10.0471C18.9577 11.9708 18.9577 13.4783 18.7996 14.6546C18.6377 15.8585 18.2999 16.8086 17.5542 17.5542C16.8086 18.2999 15.8586 18.6377 14.6546 18.7995C13.4784 18.9577 11.9708 18.9577 10.0472 18.9577H9.95154C8.02788 18.9577 6.52034 18.9577 5.3441 18.7995C4.14016 18.6377 3.19014 18.2999 2.44446 17.5542C1.69879 16.8086 1.361 15.8585 1.19914 14.6546C1.041 13.4783 1.04101 11.9708 1.04102 10.0472V9.95154C1.04101 8.02789 1.041 6.52035 1.19914 5.34411C1.361 4.14017 1.69879 3.19015 2.44446 2.44447C3.19014 1.6988 4.14016 1.36101 5.3441 1.19915C6.52034 1.04101 8.02788 1.04101 9.95153 1.04102ZM5.51066 2.438C4.44533 2.58123 3.80306 2.85364 3.32835 3.32835C2.85363 3.80307 2.58122 4.44534 2.43799 5.51067C2.29234 6.59399 2.29102 8.0175 2.29102 9.99936C2.29102 11.9812 2.29234 13.4047 2.43799 14.488C2.58122 15.5534 2.85363 16.1956 3.32835 16.6703C3.80306 17.1451 4.44533 17.4175 5.51066 17.5607C6.59398 17.7063 8.0175 17.7077 9.99935 17.7077C11.9812 17.7077 13.4047 17.7063 14.488 17.5607C15.5534 17.4175 16.1956 17.1451 16.6704 16.6703C17.1451 16.1956 17.4175 15.5534 17.5607 14.488C17.7064 13.4047 17.7077 11.9812 17.7077 9.99936C17.7077 8.0175 17.7064 6.59399 17.5607 5.51067C17.4175 4.44534 17.1451 3.80307 16.6704 3.32835C16.1956 2.85364 15.5534 2.58123 14.488 2.438C13.4047 2.29235 11.9812 2.29102 9.99935 2.29102C8.0175 2.29102 6.59398 2.29235 5.51066 2.438Z" fill="white"/>
</svg>
