<svg width="17" height="18" viewBox="0 0 17 18" fill="none" xmlns="http://www.w3.org/2000/svg">
<g clip-path="url(#clip0_633_582)">
<path fill-rule="evenodd" clip-rule="evenodd" d="M4.04102 3.99935C4.04102 1.81322 5.81322 0.0410156 7.99935 0.0410156C10.1855 0.0410156 11.9577 1.81322 11.9577 3.99935C11.9577 6.18547 10.1855 7.95768 7.99935 7.95768C5.81322 7.95768 4.04102 6.18547 4.04102 3.99935ZM7.99935 1.29101C6.50358 1.29101 5.29102 2.50358 5.29102 3.99935C5.29102 5.49512 6.50358 6.70768 7.99935 6.70768C9.49512 6.70768 10.7077 5.49512 10.7077 3.99935C10.7077 2.50358 9.49512 1.29101 7.99935 1.29101Z" fill="white"/>
<path d="M12.9999 10.5977C13.3451 10.5977 13.6249 10.8775 13.6249 11.2227V11.7088H14.1109C14.4561 11.7088 14.7359 11.9886 14.7359 12.3338C14.7359 12.6789 14.4561 12.9588 14.1109 12.9588H13.6249V13.4449C13.6249 13.7901 13.3451 14.0699 12.9999 14.0699C12.6548 14.0699 12.3749 13.7901 12.3749 13.4449V12.9588H11.8887C11.5435 12.9588 11.2637 12.6789 11.2637 12.3338C11.2637 11.9886 11.5435 11.7088 11.8887 11.7088H12.3749V11.2227C12.3749 10.8775 12.6548 10.5977 12.9999 10.5977Z" fill="white"/>
<path fill-rule="evenodd" clip-rule="evenodd" d="M10.3129 9.42742C9.5857 9.28504 8.80781 9.20833 8.00076 9.20833C6.0728 9.20833 4.29653 9.64657 2.9803 10.387C1.68366 11.1163 0.709096 12.2218 0.709096 13.5834L0.709041 13.6683C0.708099 14.6365 0.706917 15.8517 1.77277 16.7197C2.29733 17.1468 3.03116 17.4506 4.0226 17.6513C5.01681 17.8525 6.31261 17.9584 8.00076 17.9584C10.3908 17.9584 12.009 17.7468 13.1004 17.3405C14.0828 16.9748 14.6651 16.4389 14.976 15.7644C16.1613 15.0805 16.9591 13.8001 16.9591 12.3334C16.9591 10.1472 15.1869 8.375 13.0007 8.375C11.9632 8.375 11.0188 8.77421 10.3129 9.42742ZM3.59313 11.4765C2.47691 12.1043 1.95909 12.8739 1.95909 13.5834C1.95909 14.6732 1.99269 15.2867 2.56208 15.7504C2.87086 16.0018 3.38703 16.2473 4.27059 16.4261C5.15138 16.6044 6.35557 16.7084 8.00076 16.7084C10.149 16.7084 11.5341 16.5305 12.4264 16.2503C10.5125 15.9722 9.04243 14.3244 9.04243 12.3334C9.04243 11.6935 9.19426 11.0891 9.46385 10.5542C8.99573 10.4917 8.5058 10.4584 8.00076 10.4584C6.24682 10.4584 4.68976 10.8596 3.59313 11.4765ZM10.2924 12.3334C10.2924 10.8376 11.505 9.625 13.0007 9.625C14.4965 9.625 15.7091 10.8376 15.7091 12.3334C15.7091 13.8291 14.4965 15.0417 13.0007 15.0417C11.505 15.0417 10.2924 13.8291 10.2924 12.3334Z" fill="white"/>
</g>
<defs>
<clipPath id="clip0_633_582">
<rect width="17" height="18" fill="white"/>
</clipPath>
</defs>
</svg>
