<svg width="12" height="12" viewBox="0 0 12 12" fill="none" xmlns="http://www.w3.org/2000/svg">
<g clip-path="url(#clip0_633_608)">
<path d="M7.67578 1.99688C7.57031 2.03672 7.5 2.1375 7.5 2.25C7.5 2.3625 7.57031 2.46329 7.67578 2.50313L9 3L9.49688 4.32422C9.53672 4.42969 9.6375 4.5 9.75 4.5C9.8625 4.5 9.96328 4.42969 10.0031 4.32422L10.5 3L11.8242 2.50313C11.9297 2.46329 12 2.3625 12 2.25C12 2.1375 11.9297 2.03672 11.8242 1.99688L10.5 1.5L10.0031 0.175781C9.96328 0.0703125 9.8625 0 9.75 0C9.6375 0 9.53672 0.0703125 9.49688 0.175781L9 1.5L7.67578 1.99688ZM4.80703 1.71797C4.74609 1.58438 4.6125 1.5 4.46719 1.5C4.32188 1.5 4.18828 1.58438 4.12734 1.71797L2.88984 4.38985L0.217969 5.625C0.084375 5.68594 0 5.81954 0 5.96719C0 6.11485 0.084375 6.2461 0.217969 6.30704L2.89219 7.54219L4.125 10.2141C4.18594 10.3477 4.31953 10.4321 4.46484 10.4321C4.61016 10.4321 4.74375 10.3477 4.80469 10.2141L6.03984 7.53985L8.71406 6.30469C8.84766 6.24375 8.93203 6.11016 8.93203 5.96485C8.93203 5.81954 8.84766 5.68594 8.71406 5.625L6.04219 4.39219L4.80703 1.71797ZM9 9L7.67578 9.49688C7.57031 9.53672 7.5 9.6375 7.5 9.75C7.5 9.8625 7.57031 9.96328 7.67578 10.0032L9 10.5L9.49688 11.8243C9.53672 11.9297 9.6375 12 9.75 12C9.8625 12 9.96328 11.9297 10.0031 11.8243L10.5 10.5L11.8242 10.0032C11.9297 9.96328 12 9.8625 12 9.75C12 9.6375 11.9297 9.53672 11.8242 9.49688L10.5 9L10.0031 7.67579C9.96328 7.57032 9.8625 7.5 9.75 7.5C9.6375 7.5 9.53672 7.57032 9.49688 7.67579L9 9Z" fill="#436BFA"/>
</g>
<defs>
<clipPath id="clip0_633_608">
<rect width="12" height="12" fill="white"/>
</clipPath>
</defs>
</svg>
