<svg width="16" height="16" viewBox="0 0 16 16" fill="none" xmlns="http://www.w3.org/2000/svg">
<g clip-path="url(#clip0_633_616)">
<path d="M7.19922 0.8C7.19922 0.358203 7.55742 0 7.99922 0C8.44102 0 8.79922 0.358203 8.79922 0.8V1.6C8.79922 2.0418 8.44102 2.4 7.99922 2.4C7.55742 2.4 7.19922 2.0418 7.19922 1.6V0.8Z" fill="#7B8EC8"/>
<path d="M12 8C12 10.2092 10.2092 12 8 12C5.79082 12 4 10.2092 4 8C4 5.79082 5.79082 4 8 4C10.2092 4 12 5.79082 12 8Z" fill="#7B8EC8"/>
<path d="M7.99922 13.5996C7.55742 13.5996 7.19922 13.9578 7.19922 14.3996V15.1996C7.19922 15.6414 7.55742 15.9996 7.99922 15.9996C8.44102 15.9996 8.79922 15.6414 8.79922 15.1996V14.3996C8.79922 13.9578 8.44102 13.5996 7.99922 13.5996Z" fill="#7B8EC8"/>
<path d="M2.34375 3.47512C2.03125 3.16262 2.03125 2.65618 2.34375 2.34368C2.65616 2.03127 3.1627 2.03127 3.4751 2.34368L4.04073 2.9094C4.35323 3.2218 4.35323 3.72834 4.04073 4.04075C3.72832 4.35315 3.22178 4.35315 2.90938 4.04075L2.34375 3.47512Z" fill="#7B8EC8"/>
<path d="M11.9589 11.9589C11.6465 12.2713 11.6465 12.7778 11.9589 13.0902L12.5246 13.6559C12.837 13.9683 13.3435 13.9683 13.6559 13.6559C13.9683 13.3435 13.9683 12.837 13.6559 12.5246L13.0902 11.9589C12.7778 11.6465 12.2713 11.6465 11.9589 11.9589Z" fill="#7B8EC8"/>
<path d="M0.8 8.79922C0.358203 8.79922 0 8.44102 0 7.99922C0 7.55742 0.358203 7.19922 0.8 7.19922H1.6C2.0418 7.19922 2.4 7.55742 2.4 7.99922C2.4 8.44102 2.0418 8.79922 1.6 8.79922H0.8Z" fill="#7B8EC8"/>
<path d="M13.5996 7.99922C13.5996 8.44102 13.9578 8.79922 14.3996 8.79922H15.1996C15.6414 8.79922 15.9996 8.44102 15.9996 7.99922C15.9996 7.55742 15.6414 7.19922 15.1996 7.19922H14.3996C13.9578 7.19922 13.5996 7.55742 13.5996 7.99922Z" fill="#7B8EC8"/>
<path d="M2.99781 13.2415C2.65943 13.5255 2.15475 13.4814 1.87076 13.143C1.58678 12.8045 1.63092 12.2999 1.96939 12.0158L2.58219 11.5017C2.92066 11.2177 3.42525 11.2618 3.70934 11.6002C3.99332 11.9387 3.94918 12.4433 3.6107 12.7274L2.99781 13.2415Z" fill="#7B8EC8"/>
<path d="M12.2906 4.40072C12.5746 4.7392 13.0792 4.78334 13.4177 4.49936L14.0305 3.9851C14.369 3.70111 14.4131 3.19652 14.1291 2.85805C13.8451 2.51957 13.3405 2.47543 13.0021 2.75951L12.3892 3.27368C12.0508 3.55767 12.0067 4.06234 12.2906 4.40072Z" fill="#7B8EC8"/>
</g>
<defs>
<clipPath id="clip0_633_616">
<rect width="16" height="16" fill="white"/>
</clipPath>
</defs>
</svg>
