<svg width="14" height="14" viewBox="0 0 14 14" fill="none" xmlns="http://www.w3.org/2000/svg">
<path d="M1.75 3.5H2.91667H12.25" stroke="#FF2121" stroke-linecap="round" stroke-linejoin="round"/>
<path d="M11.0827 3.49935V11.666C11.0827 11.9755 10.9598 12.2722 10.741 12.491C10.5222 12.7098 10.2254 12.8327 9.91603 12.8327H4.08269C3.77327 12.8327 3.47653 12.7098 3.25773 12.491C3.03894 12.2722 2.91602 11.9755 2.91602 11.666V3.49935M4.66602 3.49935V2.33268C4.66602 2.02327 4.78894 1.72652 5.00773 1.50773C5.22653 1.28893 5.52327 1.16602 5.83269 1.16602H8.16602C8.47544 1.16602 8.77219 1.28893 8.99098 1.50773C9.20978 1.72652 9.33269 2.02327 9.33269 2.33268V3.49935" stroke="#FF2121" stroke-linecap="round" stroke-linejoin="round"/>
</svg>
