<svg width="20" height="20" viewBox="0 0 20 20" fill="none" xmlns="http://www.w3.org/2000/svg">
<path fill-rule="evenodd" clip-rule="evenodd" d="M9.99932 1.04102C7.81322 1.04102 6.04102 2.81323 6.04102 4.99936C6.04102 7.18548 7.81322 8.95769 9.99932 8.95769C12.1855 8.95769 13.9577 7.18548 13.9577 4.99936C13.9577 2.81323 12.1855 1.04102 9.99932 1.04102ZM7.29102 4.99936C7.29102 3.50359 8.50358 2.29102 9.99932 2.29102C11.4951 2.29102 12.7077 3.50359 12.7077 4.99936C12.7077 6.49513 11.4951 7.70769 9.99932 7.70769C8.50358 7.70769 7.29102 6.49513 7.29102 4.99936Z" fill="white"/>
<path fill-rule="evenodd" clip-rule="evenodd" d="M10.0007 10.209C8.0728 10.209 6.29653 10.6472 4.9803 11.3876C3.68366 12.1169 2.70909 13.2224 2.70909 14.584L2.70904 14.6689C2.7081 15.6371 2.70692 16.8523 3.77277 17.7203C4.29733 18.1474 5.03116 18.4512 6.0226 18.6519C7.01681 18.8531 8.31261 18.959 10.0007 18.959C11.6889 18.959 12.9847 18.8531 13.9789 18.6519C14.9703 18.4512 15.7042 18.1474 16.2287 17.7203C17.2946 16.8523 17.2934 15.6371 17.2924 14.6689V14.584C17.2924 13.2224 16.3178 12.1169 15.0212 11.3876C13.705 10.6472 11.9287 10.209 10.0007 10.209ZM3.95909 14.584C3.95909 13.8745 4.47691 13.1049 5.59313 12.4771C6.68976 11.8602 8.24682 11.459 10.0007 11.459C11.7547 11.459 13.3117 11.8602 14.4084 12.4771C15.5246 13.1049 16.0424 13.8745 16.0424 14.584C16.0424 15.6738 16.0088 16.2873 15.4394 16.751C15.1306 17.0024 14.6145 17.2479 13.7309 17.4267C12.8501 17.605 11.6459 17.709 10.0007 17.709C8.35557 17.709 7.15138 17.605 6.27059 17.4267C5.38703 17.2479 4.87086 17.0024 4.56208 16.751C3.99269 16.2873 3.95909 15.6738 3.95909 14.584Z" fill="white"/>
</svg>
